<svg width="14" height="14" viewBox="0 0 14 14" fill="none" xmlns="http://www.w3.org/2000/svg">
<path d="M7.00013 12.25C6.92336 12.2505 6.84726 12.2357 6.77618 12.2067C6.70511 12.1777 6.64047 12.1349 6.58596 12.0808L2.05346 7.54251C1.48492 6.96803 1.16602 6.19242 1.16602 5.38418C1.16602 4.57593 1.48492 3.80032 2.05346 3.22584C2.62645 2.65447 3.40261 2.33362 4.2118 2.33362C5.02098 2.33362 5.79714 2.65447 6.37013 3.22584L7.00013 3.85584L7.63013 3.22584C8.20311 2.65447 8.97928 2.33362 9.78846 2.33362C10.5976 2.33362 11.3738 2.65447 11.9468 3.22584C12.5153 3.80032 12.8342 4.57593 12.8342 5.38418C12.8342 6.19242 12.5153 6.96803 11.9468 7.54251L7.4143 12.0808C7.35979 12.1349 7.29515 12.1777 7.22407 12.2067C7.153 12.2357 7.0769 12.2505 7.00013 12.25Z" fill="#F25822"/>
</svg>
