<svg width="14" height="14" viewBox="0 0 14 14" fill="none" xmlns="http://www.w3.org/2000/svg">
<path d="M11.1244 4.49562C10.1672 3.57844 8.90398 3.00793 7.55239 2.88243C6.20079 2.75694 4.84556 3.08433 3.72033 3.80815C2.5951 4.53198 1.7704 5.60689 1.38839 6.84756C1.00638 8.08823 1.09101 9.41692 1.62769 10.6046C1.68363 10.7149 1.70198 10.8392 1.68019 10.96L1.16686 13.3091C1.14708 13.3992 1.15112 13.4925 1.17861 13.5808C1.2061 13.669 1.25618 13.7493 1.32436 13.8145C1.38024 13.8673 1.44678 13.9088 1.51997 13.9365C1.59315 13.9642 1.67147 13.9775 1.75019 13.9756H1.86686L4.36352 13.498C4.49042 13.4834 4.61909 13.5007 4.73686 13.5479C5.98432 14.0589 7.37993 14.1395 8.6831 13.7758C9.98627 13.4121 11.1153 12.6269 11.8756 11.5557C12.6359 10.4844 12.9798 9.19416 12.848 7.90739C12.7162 6.62062 12.1169 5.41795 11.1535 4.50672L11.1244 4.49562ZM4.66686 8.97735C4.55149 8.97735 4.4387 8.94478 4.34278 8.88376C4.24685 8.82274 4.17208 8.736 4.12793 8.63452C4.08378 8.53304 4.07222 8.42138 4.09473 8.31365C4.11724 8.20592 4.1728 8.10697 4.25438 8.0293C4.33596 7.95163 4.4399 7.89874 4.55306 7.87731C4.66621 7.85588 4.7835 7.86688 4.89009 7.90891C4.99668 7.95095 5.08778 8.02213 5.15188 8.11346C5.21598 8.20478 5.25019 8.31216 5.25019 8.422C5.25019 8.56929 5.18873 8.71054 5.07934 8.81469C4.96994 8.91884 4.82157 8.97735 4.66686 8.97735ZM7.00019 8.97735C6.88482 8.97735 6.77204 8.94478 6.67611 8.88376C6.58018 8.82274 6.50541 8.736 6.46126 8.63452C6.41711 8.53304 6.40556 8.42138 6.42807 8.31365C6.45057 8.20592 6.50613 8.10697 6.58771 8.0293C6.66929 7.95163 6.77323 7.89874 6.88639 7.87731C6.99954 7.85588 7.11683 7.86688 7.22342 7.90891C7.33001 7.95095 7.42112 8.02213 7.48521 8.11346C7.54931 8.20478 7.58352 8.31216 7.58352 8.422C7.58352 8.56929 7.52207 8.71054 7.41267 8.81469C7.30327 8.91884 7.1549 8.97735 7.00019 8.97735ZM9.33352 8.97735C9.21815 8.97735 9.10537 8.94478 9.00944 8.88376C8.91351 8.82274 8.83875 8.736 8.79459 8.63452C8.75044 8.53304 8.73889 8.42138 8.7614 8.31365C8.78391 8.20592 8.83946 8.10697 8.92105 8.0293C9.00263 7.95163 9.10657 7.89874 9.21972 7.87731C9.33288 7.85588 9.45017 7.86688 9.55676 7.90891C9.66335 7.95095 9.75445 8.02213 9.81855 8.11346C9.88265 8.20478 9.91686 8.31216 9.91686 8.422C9.91686 8.56929 9.8554 8.71054 9.746 8.81469C9.63661 8.91884 9.48823 8.97735 9.33352 8.97735Z" fill="#F25822"/>
</svg>
