<svg width="16" height="16" viewBox="0 0 16 16" fill="none" xmlns="http://www.w3.org/2000/svg">
<path d="M5.38676 13.3336C6.37255 13.3666 7.35496 13.2017 8.27592 12.8485C9.19687 12.4954 10.0377 11.9612 10.7487 11.2775C11.4597 10.5939 12.0264 9.77464 12.4154 8.86824C12.8044 7.96183 13.0077 6.98665 13.0134 6.00031C13.4652 5.44126 13.8007 4.79753 14.0001 4.10698C14.015 4.05242 14.0138 3.99472 13.9966 3.94083C13.9795 3.88694 13.9471 3.83915 13.9034 3.80322C13.8598 3.7673 13.8066 3.74476 13.7505 3.73833C13.6943 3.7319 13.6374 3.74185 13.5868 3.76698C13.3504 3.88075 13.0843 3.9175 12.826 3.87205C12.5677 3.8266 12.3301 3.70125 12.1468 3.51365C11.9127 3.25737 11.6296 3.05067 11.3143 2.9058C10.9989 2.76093 10.6576 2.68084 10.3107 2.67027C9.96382 2.6597 9.61833 2.71887 9.29472 2.84427C8.97111 2.96967 8.67596 3.15876 8.42676 3.40031C8.08555 3.73075 7.83564 4.14384 7.7013 4.59943C7.56696 5.05502 7.55276 5.53762 7.66009 6.00031C5.42676 6.13365 3.89342 5.07365 2.66676 3.62031C2.6299 3.57858 2.5817 3.54848 2.52802 3.53369C2.47435 3.5189 2.41753 3.52007 2.36451 3.53703C2.31148 3.554 2.26454 3.58604 2.22943 3.62925C2.19431 3.67245 2.17253 3.72494 2.16676 3.78031C1.93307 5.0766 2.10164 6.41335 2.64983 7.61103C3.19803 8.80871 4.09959 9.80996 5.23342 10.4803C4.47318 11.3522 3.40556 11.8968 2.25342 12.0003C2.1917 12.0106 2.13472 12.0398 2.09046 12.0841C2.0462 12.1283 2.01687 12.1852 2.00658 12.247C1.9963 12.3087 2.00557 12.3721 2.03309 12.4282C2.06062 12.4844 2.10502 12.5306 2.16009 12.5603C3.16244 13.0612 4.26624 13.3258 5.38676 13.3336Z" fill="#AAAAAA"/>
</svg>
